<svg width="30" height="30" viewBox="0 0 30 30" fill="none" xmlns="http://www.w3.org/2000/svg">
<path d="M25 17.5L26.7929 15.7071C27.1834 15.3166 27.1834 14.6834 26.7929 14.2929L25 12.5" stroke="#28303F" stroke-width="1.5" stroke-linecap="round" stroke-linejoin="round"/>
<path d="M26.25 15H16.25M7.5 25C4.73858 25 2.5 22.7614 2.5 20V10C2.5 7.23858 4.73858 5 7.5 5M7.5 25C10.2614 25 12.5 22.7614 12.5 20V10C12.5 7.23858 10.2614 5 7.5 5M7.5 25H17.5C20.2614 25 22.5 22.7614 22.5 20M7.5 5H17.5C20.2614 5 22.5 7.23858 22.5 10" stroke="#28303F" stroke-width="1.5" stroke-linecap="round"/>
</svg>
