<svg width="30" height="30" viewBox="0 0 30 30" fill="none" xmlns="http://www.w3.org/2000/svg">
<path d="M26.2726 18.5445L26.0273 19.2533L26.0273 19.2533L26.2726 18.5445ZM26.2726 11.4555L26.518 12.1642L26.518 12.1642L26.2726 11.4555ZM3.72737 18.5445L3.97274 19.2533L3.97274 19.2533L3.72737 18.5445ZM3.72737 11.4555L3.48199 12.1642L3.482 12.1642L3.72737 11.4555ZM19.2803 11.7803C19.5732 11.4874 19.5732 11.0126 19.2803 10.7197C18.9874 10.4268 18.5126 10.4268 18.2197 10.7197L19.2803 11.7803ZM10.7197 18.2197C10.4268 18.5126 10.4268 18.9874 10.7197 19.2803C11.0126 19.5732 11.4874 19.5732 11.7803 19.2803L10.7197 18.2197ZM7.5 26.25V25.5C5.15279 25.5 3.25 23.5972 3.25 21.25H2.5H1.75C1.75 24.4256 4.32436 27 7.5 27V26.25ZM27.5 21.25H26.75C26.75 23.5972 24.8472 25.5 22.5 25.5V26.25V27C25.6756 27 28.25 24.4256 28.25 21.25H27.5ZM22.5 3.75V4.5C24.8472 4.5 26.75 6.40279 26.75 8.75H27.5H28.25C28.25 5.57436 25.6756 3 22.5 3V3.75ZM7.5 3.75V3C4.32436 3 1.75 5.57436 1.75 8.75H2.5H3.25C3.25 6.40279 5.15279 4.5 7.5 4.5V3.75ZM26.2726 18.5445L26.518 17.8358C25.3424 17.4288 24.5 16.3118 24.5 15H23.75H23C23 16.9706 24.2663 18.6436 26.0273 19.2533L26.2726 18.5445ZM23.75 15H24.5C24.5 13.6882 25.3424 12.5712 26.518 12.1642L26.2726 11.4555L26.0273 10.7467C24.2663 11.3564 23 13.0294 23 15H23.75ZM6.25 15H5.5C5.5 16.3118 4.65759 17.4288 3.48199 17.8358L3.72737 18.5445L3.97274 19.2533C5.73375 18.6436 7 16.9706 7 15H6.25ZM3.72737 11.4555L3.482 12.1642C4.65759 12.5712 5.5 13.6882 5.5 15H6.25H7C7 13.0294 5.73375 11.3564 3.97274 10.7467L3.72737 11.4555ZM27.5 10H28.25V8.75H27.5H26.75V10H27.5ZM27.5 20H26.75V21.25H27.5H28.25V20H27.5ZM2.5 20H1.75V21.25H2.5H3.25V20H2.5ZM2.5 10H3.25V8.75H2.5H1.75V10H2.5ZM22.5 26.25V25.5H7.5V26.25V27H22.5V26.25ZM22.5 3.75V3H7.5V3.75V4.5H22.5V3.75ZM3.72737 18.5445L3.482 17.8358C2.67285 18.1159 1.75 18.8595 1.75 20H2.5H3.25C3.25 19.7598 3.47716 19.4248 3.97274 19.2533L3.72737 18.5445ZM26.2726 11.4555L26.518 12.1642C27.3272 11.884 28.25 11.1405 28.25 10H27.5H26.75C26.75 10.2402 26.5228 10.5752 26.0273 10.7467L26.2726 11.4555ZM3.72737 11.4555L3.97274 10.7467C3.47716 10.5752 3.25 10.2402 3.25 10H2.5H1.75C1.75 11.1405 2.67285 11.884 3.48199 12.1642L3.72737 11.4555ZM26.2726 18.5445L26.0273 19.2533C26.5228 19.4248 26.75 19.7598 26.75 20H27.5H28.25C28.25 18.8595 27.3272 18.1159 26.518 17.8358L26.2726 18.5445ZM12.5 11.25H11.75C11.75 11.5261 11.5261 11.75 11.25 11.75V12.5V13.25C12.3546 13.25 13.25 12.3546 13.25 11.25H12.5ZM11.25 12.5V11.75C10.9739 11.75 10.75 11.5261 10.75 11.25H10H9.25C9.25 12.3546 10.1454 13.25 11.25 13.25V12.5ZM10 11.25H10.75C10.75 10.9739 10.9739 10.75 11.25 10.75V10V9.25C10.1454 9.25 9.25 10.1454 9.25 11.25H10ZM11.25 10V10.75C11.5261 10.75 11.75 10.9739 11.75 11.25H12.5H13.25C13.25 10.1454 12.3546 9.25 11.25 9.25V10ZM20 18.75H19.25C19.25 19.0261 19.0261 19.25 18.75 19.25V20V20.75C19.8546 20.75 20.75 19.8546 20.75 18.75H20ZM18.75 20V19.25C18.4739 19.25 18.25 19.0261 18.25 18.75H17.5H16.75C16.75 19.8546 17.6454 20.75 18.75 20.75V20ZM17.5 18.75H18.25C18.25 18.4739 18.4739 18.25 18.75 18.25V17.5V16.75C17.6454 16.75 16.75 17.6454 16.75 18.75H17.5ZM18.75 17.5V18.25C19.0261 18.25 19.25 18.4739 19.25 18.75H20H20.75C20.75 17.6454 19.8546 16.75 18.75 16.75V17.5ZM18.75 11.25L18.2197 10.7197L10.7197 18.2197L11.25 18.75L11.7803 19.2803L19.2803 11.7803L18.75 11.25Z" fill="#28303F"/>
</svg>
