<svg width="30" height="30" viewBox="0 0 30 30" fill="none" xmlns="http://www.w3.org/2000/svg">
<path d="M25 6.25V13.125" stroke="#28303F" stroke-width="1.5" stroke-linecap="round"/>
<path d="M20.75 8.75V8H19.25V8.75H20.75ZM10.75 8.75V8H9.25V8.75H10.75ZM15 2.5L15.2633 1.79775C15.0936 1.73408 14.9064 1.73408 14.7367 1.79775L15 2.5ZM5 6.25L4.73666 5.54775C4.44393 5.65753 4.25 5.93737 4.25 6.25C4.25 6.56263 4.44393 6.84247 4.73666 6.95225L5 6.25ZM15 10L14.7367 10.7022C14.9064 10.7659 15.0936 10.7659 15.2633 10.7022L15 10ZM25 6.25L25.2633 6.95225C25.5561 6.84247 25.75 6.56263 25.75 6.25C25.75 5.93737 25.5561 5.65753 25.2633 5.54775L25 6.25ZM15.8888 21.2573L15.3555 20.73L15.3555 20.73L15.8888 21.2573ZM17.8744 19.2495L18.4077 19.7769L18.4077 19.7769L17.8744 19.2495ZM19.0475 18.9302L19.2591 18.2106L19.2591 18.2106L19.0475 18.9302ZM12.1256 19.2495L12.6588 18.7221L12.6588 18.7221L12.1256 19.2495ZM14.1112 21.2573L14.6445 20.73L14.6445 20.73L14.1112 21.2573ZM10.9525 18.9302L10.7409 18.2106L10.7409 18.2106L10.9525 18.9302ZM24.25 27.5C24.25 27.9142 24.5858 28.25 25 28.25C25.4142 28.25 25.75 27.9142 25.75 27.5H24.25ZM4.25 27.5C4.25 27.9142 4.58579 28.25 5 28.25C5.41421 28.25 5.75 27.9142 5.75 27.5H4.25ZM20 8.75H19.25V11.25H20H20.75V8.75H20ZM10 11.25H10.75V8.75H10H9.25V11.25H10ZM15 16.25V15.5C12.6528 15.5 10.75 13.5972 10.75 11.25H10H9.25C9.25 14.4256 11.8244 17 15 17V16.25ZM20 11.25H19.25C19.25 13.5972 17.3472 15.5 15 15.5V16.25V17C18.1756 17 20.75 14.4256 20.75 11.25H20ZM15 2.5L14.7367 1.79775L4.73666 5.54775L5 6.25L5.26334 6.95225L15.2633 3.20225L15 2.5ZM15 10L15.2633 10.7022L25.2633 6.95225L25 6.25L24.7367 5.54775L14.7367 9.29775L15 10ZM15 2.5L14.7367 3.20225L24.7367 6.95225L25 6.25L25.2633 5.54775L15.2633 1.79775L15 2.5ZM15 10L15.2633 9.29775L5.26334 5.54775L5 6.25L4.73666 6.95225L14.7367 10.7022L15 10ZM15.8888 21.2573L16.4221 21.7847L18.4077 19.7769L17.8744 19.2495L17.3412 18.7221L15.3555 20.73L15.8888 21.2573ZM19.0475 18.9302L18.8359 19.6497C22.2102 20.642 24.25 22.7847 24.25 25H25H25.75C25.75 21.7975 22.8977 19.2806 19.2591 18.2106L19.0475 18.9302ZM12.1256 19.2495L11.5923 19.7769L13.5779 21.7847L14.1112 21.2573L14.6445 20.73L12.6588 18.7221L12.1256 19.2495ZM5 25H5.75C5.75 22.7847 7.78985 20.642 11.1641 19.6497L10.9525 18.9302L10.7409 18.2106C7.10231 19.2806 4.25 21.7975 4.25 25H5ZM25 25H24.25V27.5H25H25.75V25H25ZM5 25H4.25V27.5H5H5.75V25H5ZM12.1256 19.2495L12.6588 18.7221C12.174 18.2319 11.4453 18.0035 10.7409 18.2106L10.9525 18.9302L11.1641 19.6497C11.2968 19.6107 11.4636 19.6467 11.5923 19.7769L12.1256 19.2495ZM17.8744 19.2495L18.4077 19.7769C18.5364 19.6467 18.7032 19.6107 18.8359 19.6497L19.0475 18.9302L19.2591 18.2106C18.5547 18.0035 17.826 18.2319 17.3412 18.7221L17.8744 19.2495ZM15.8888 21.2573L15.3555 20.73C15.1598 20.9279 14.8402 20.9279 14.6445 20.73L14.1112 21.2573L13.5779 21.7847C14.3608 22.5763 15.6392 22.5763 16.4221 21.7847L15.8888 21.2573Z" fill="#28303F"/>
</svg>
