<svg width="24" height="25" viewBox="0 0 24 25" fill="none" xmlns="http://www.w3.org/2000/svg">
<path d="M20 14.6992L21.2929 13.4063C21.6834 13.0158 21.6834 12.3826 21.2929 11.9921L20 10.6992" stroke="#28303F" stroke-width="1.5" stroke-linecap="round" stroke-linejoin="round"/>
<path d="M21 12.6992H13M6 20.6992C3.79086 20.6992 2 18.9084 2 16.6992V8.69922C2 6.49008 3.79086 4.69922 6 4.69922M6 20.6992C8.20914 20.6992 10 18.9084 10 16.6992V8.69922C10 6.49008 8.20914 4.69922 6 4.69922M6 20.6992H14C16.2091 20.6992 18 18.9084 18 16.6992M6 4.69922H14C16.2091 4.69922 18 6.49008 18 8.69922" stroke="#28303F" stroke-width="1.5" stroke-linecap="round"/>
</svg>
