<svg width="30" height="30" viewBox="0 0 30 30" fill="none" xmlns="http://www.w3.org/2000/svg">
<path d="M13.75 25.625C13.75 26.6605 12.9105 27.5 11.875 27.5C10.8395 27.5 10 26.6605 10 25.625C10 24.5895 10.8395 23.75 11.875 23.75C12.9105 23.75 13.75 24.5895 13.75 25.625Z" stroke="#28303F" stroke-width="1.5"/>
<path d="M25 25.625C25 26.6605 24.1605 27.5 23.125 27.5C22.0895 27.5 21.25 26.6605 21.25 25.625C21.25 24.5895 22.0895 23.75 23.125 23.75C24.1605 23.75 25 24.5895 25 25.625Z" stroke="#28303F" stroke-width="1.5"/>
<path d="M13.75 13.75L15.941 15.5028C16.4634 15.9207 17.2221 15.8533 17.6626 15.3499L21.25 11.25" stroke="#28303F" stroke-width="1.5" stroke-linecap="round" stroke-linejoin="round"/>
<path d="M7.5 5H22.5C25.2614 5 27.5 7.23858 27.5 10V16.25C27.5 19.0114 25.2614 21.25 22.5 21.25H12.5C9.73858 21.25 7.5 19.0114 7.5 16.25V5ZM7.5 5C7.5 3.61929 6.38071 2.5 5 2.5H2.5" stroke="#28303F" stroke-width="1.5" stroke-linecap="round" stroke-linejoin="round"/>
</svg>
