<svg width="40" height="40" viewBox="0 0 40 40" fill="none" xmlns="http://www.w3.org/2000/svg">
<path d="M28.9549 13.6213C33.4983 15.6616 36.6673 20.2686 36.6673 25.625V31.25C36.6673 33.3211 35.0091 35 32.9636 35H21.8525C17.0147 35 12.899 31.8695 11.3736 27.5M28.9549 13.6213C27.7858 8.67609 23.3913 5 18.1488 5H16.2969C9.1377 5 3.33398 10.8763 3.33398 18.125V23.75C3.33398 25.8211 4.99219 27.5 7.03769 27.5H11.3736M28.9549 13.6213C29.1543 14.4646 29.2599 15.3448 29.2599 16.25C29.2599 22.4632 24.2853 27.5 18.1488 27.5H11.3736" stroke="black" stroke-width="1.5" stroke-linejoin="round"/>
</svg>
