<svg width="168" height="42" viewBox="0 0 168 42" fill="none" xmlns="http://www.w3.org/2000/svg">
<path id="Vector 176" d="M167.415 11.1884C168.071 10.683 168.194 9.74112 167.688 9.08477C167.183 8.42842 166.241 8.30611 165.585 8.81157L167.415 11.1884ZM70.9999 39.5L70.8849 40.9956L70.9999 39.5ZM5.89667 0.0533986C5.09773 -0.165674 4.27247 0.304397 4.0534 1.10333L0.483399 14.1227C0.264326 14.9217 0.734398 15.7469 1.53333 15.966C2.33227 16.1851 3.15753 15.715 3.3766 14.9161L6.54993 3.34327L18.1227 6.5166C18.9217 6.73567 19.7469 6.2656 19.966 5.46667C20.1851 4.66773 19.715 3.84247 18.9161 3.6234L5.89667 0.0533986ZM166.5 10C165.585 8.81157 165.585 8.81142 165.585 8.81139C165.585 8.81155 165.585 8.81164 165.584 8.81196C165.583 8.8126 165.582 8.81375 165.58 8.81539C165.575 8.81869 165.568 8.82399 165.559 8.83126C165.54 8.84581 165.51 8.86826 165.47 8.89833C165.391 8.95848 165.27 9.04914 165.108 9.16813C164.786 9.40612 164.302 9.75744 163.666 10.2048C162.394 11.0996 160.513 12.3782 158.092 13.9024C153.247 16.9515 146.245 20.9795 137.631 24.8838C120.387 32.6995 96.7733 39.9781 71.115 38.0044L70.8849 40.9956C97.2265 43.0219 121.363 35.5505 138.869 27.6162C147.63 23.6455 154.753 19.5485 159.69 16.4414C162.158 14.8874 164.082 13.5801 165.392 12.6585C166.047 12.1976 166.549 11.8331 166.889 11.5824C167.059 11.457 167.189 11.36 167.277 11.2936C167.321 11.2604 167.354 11.2349 167.377 11.2173C167.389 11.2085 167.398 11.2016 167.404 11.1968C167.407 11.1944 167.41 11.1925 167.412 11.1911C167.413 11.1904 167.413 11.1897 167.414 11.1894C167.415 11.1888 167.415 11.1884 166.5 10ZM71.115 38.0044C48.5616 36.2695 32.4767 26.9335 22.0231 18.0348C16.7931 13.5828 12.9747 9.24127 10.4685 6.02024C9.21582 4.41024 8.29226 3.08188 7.68531 2.162C7.38187 1.70213 7.1577 1.34454 7.0112 1.10512C6.93796 0.985416 6.88415 0.895277 6.84958 0.836686C6.83229 0.807391 6.81982 0.785986 6.81213 0.772719C6.80828 0.766085 6.80563 0.761487 6.80418 0.758954C6.80345 0.757687 6.80302 0.756937 6.80289 0.756708C6.80282 0.756593 6.80295 0.756812 6.80291 0.756754C6.80311 0.757104 6.80339 0.757584 5.5 1.5C4.19661 2.24242 4.19704 2.24316 4.19754 2.24403C4.1978 2.2445 4.19838 2.24551 4.19891 2.24644C4.19998 2.24831 4.20135 2.2507 4.20302 2.25361C4.20637 2.25943 4.21092 2.26733 4.21669 2.27728C4.22822 2.29718 4.24461 2.32527 4.26587 2.36131C4.3084 2.43338 4.37045 2.53724 4.45222 2.67088C4.61575 2.93814 4.85822 3.32461 5.18127 3.81421C5.82729 4.7933 6.79606 6.18562 8.10081 7.8625C10.7095 11.2152 14.6665 15.7122 20.0785 20.3192C30.9086 29.5384 47.5737 39.2024 70.8849 40.9956L71.115 38.0044Z" fill="#FAB437"/>
</svg>
