<svg width="24" height="24" viewBox="0 0 24 24" fill="none" xmlns="http://www.w3.org/2000/svg">
<path d="M14.1601 15.9289L16.3071 19.6476C16.7213 20.365 16.4755 21.2824 15.758 21.6966C15.0406 22.1108 14.1232 21.865 13.709 21.1476L11.0555 16.5515M19.4543 4.83084L19.8203 3.46482M21.4543 8.29495L22.8203 8.66098M8.09809 17.161L18.7168 14.7295C20.0285 14.4292 20.6753 12.9453 20.0025 11.78L15.7104 4.34586C15.0376 3.18053 13.4291 2.99873 12.5132 3.98449L5.09809 11.9648L8.09809 17.161ZM5.34812 12.3978L7.84812 16.728C8.26233 17.4454 8.01652 18.3628 7.29908 18.777C6.58164 19.1912 5.66425 18.9454 5.25004 18.228L2.75004 13.8978C2.33583 13.1804 2.58164 12.263 3.29908 11.8488C4.01652 11.4346 4.9339 11.6804 5.34812 12.3978Z" stroke="#28303F" stroke-width="1.5" stroke-linecap="round" stroke-linejoin="round"/>
</svg>
