<svg width="60" height="60" viewBox="0 0 60 60" fill="none" xmlns="http://www.w3.org/2000/svg">
<path d="M32.5 5V15C32.5 20.5228 36.9772 25 42.5 25L52.5 25M7.5 15L7.5 45C7.5 50.5228 11.9772 55 17.5 55H42.5C48.0228 55 52.5 50.5228 52.5 45V29.1421C52.5 26.49 51.4464 23.9464 49.5711 22.0711L35.4289 7.92893C33.5536 6.05357 31.01 5 28.3579 5L17.5 5C11.9772 5 7.5 9.47715 7.5 15Z" stroke="#28303F" stroke-width="1.5" stroke-linejoin="round"/>
<path d="M16.0918 44.999V34.2617H19.5708C20.8892 34.2617 21.7485 34.3154 22.1489 34.4229C22.7642 34.584 23.2793 34.9355 23.6943 35.4775C24.1094 36.0146 24.3169 36.7104 24.3169 37.5649C24.3169 38.2241 24.1973 38.7783 23.958 39.2275C23.7188 39.6768 23.4136 40.0308 23.0425 40.2896C22.6763 40.5435 22.3027 40.7119 21.9219 40.7949C21.4043 40.8975 20.6548 40.9487 19.6733 40.9487H18.2598V44.999H16.0918ZM18.2598 36.0781V39.125H19.4463C20.3008 39.125 20.8721 39.0688 21.1602 38.9565C21.4482 38.8442 21.6729 38.6685 21.834 38.4292C22 38.1899 22.083 37.9116 22.083 37.5942C22.083 37.2036 21.9683 36.8813 21.7388 36.6274C21.5093 36.3735 21.2188 36.2148 20.8672 36.1514C20.6084 36.1025 20.0884 36.0781 19.3071 36.0781H18.2598Z" fill="#28303F"/>
<path d="M26.0894 34.2617H30.0518C30.9453 34.2617 31.6265 34.3301 32.0952 34.4668C32.7251 34.6523 33.2646 34.9819 33.7139 35.4556C34.1631 35.9292 34.5049 36.5103 34.7393 37.1987C34.9736 37.8823 35.0908 38.7271 35.0908 39.7329C35.0908 40.6167 34.981 41.3784 34.7612 42.0181C34.4927 42.7993 34.1094 43.4316 33.6113 43.915C33.2354 44.2812 32.7275 44.5669 32.0879 44.772C31.6094 44.9233 30.9697 44.999 30.1689 44.999H26.0894V34.2617ZM28.2573 36.0781V43.1899H29.876C30.4814 43.1899 30.9185 43.1558 31.187 43.0874C31.5386 42.9995 31.8291 42.8506 32.0586 42.6406C32.293 42.4307 32.4834 42.0864 32.6299 41.6079C32.7764 41.1245 32.8496 40.4678 32.8496 39.6377C32.8496 38.8076 32.7764 38.1704 32.6299 37.7261C32.4834 37.2817 32.2783 36.9351 32.0146 36.686C31.751 36.437 31.4165 36.2686 31.0112 36.1807C30.7085 36.1123 30.1152 36.0781 29.2314 36.0781H28.2573Z" fill="#28303F"/>
<path d="M36.9512 44.999V34.2617H44.312V36.0781H39.1191V38.6196H43.6016V40.436H39.1191V44.999H36.9512Z" fill="#28303F"/>
</svg>
