<svg width="50" height="50" viewBox="0 0 50 50" fill="none" xmlns="http://www.w3.org/2000/svg">
<path d="M24.9999 45.8327C36.5058 45.8327 45.8332 36.5053 45.8332 24.9993C45.8332 13.4934 36.5058 4.16602 24.9999 4.16602C13.494 4.16602 4.16656 13.4934 4.16656 24.9993C4.16656 28.1482 4.86514 31.1339 6.11577 33.8098L4.38952 44.4572C4.28 45.1326 4.86604 45.7161 5.54103 45.6036L16.1037 43.8432C18.8016 45.1191 21.8174 45.8327 24.9999 45.8327Z" stroke="#28303F" stroke-width="1.5" stroke-linecap="square" stroke-linejoin="round"/>
<path d="M33.3332 31.4808V30.0571C33.3332 29.2393 32.8353 28.5039 32.076 28.2002L30.4122 27.5347C29.4464 27.1483 28.3457 27.5668 27.8805 28.4972L27.7776 28.7031C27.7776 28.7031 25.4628 28.2401 23.6109 26.3882C21.7591 24.5364 21.2961 22.2216 21.2961 22.2216L21.502 22.1186C22.4324 21.6535 22.8508 20.5528 22.4645 19.587L21.799 17.9232C21.4953 17.1639 20.7599 16.666 19.9421 16.666H18.5184C17.4956 16.666 16.6665 17.4951 16.6665 18.5179C16.6665 26.6999 23.2993 33.3327 31.4813 33.3327C32.5041 33.3327 33.3332 32.5036 33.3332 31.4808Z" fill="#28303F"/>
</svg>
