<svg width="41" height="40" viewBox="0 0 41 40" fill="none" xmlns="http://www.w3.org/2000/svg">
<path d="M6.51618 12.4494C7.3045 9.29609 10.1377 7.08398 13.388 7.08398H30.529C35.1372 7.08398 38.5185 11.4147 37.4008 15.8853L34.4841 27.5519C33.6958 30.7052 30.8626 32.9173 27.6123 32.9173H19.2502C18.5598 32.9173 18.0002 32.3577 18.0002 31.6673C18.0002 30.977 18.5598 30.4173 19.2502 30.4173H27.6123C29.7154 30.4173 31.5487 28.986 32.0588 26.9456L34.9755 15.2789C35.6986 12.3862 33.5108 9.58398 30.529 9.58398H13.388C11.2849 9.58398 9.45163 11.0153 8.94154 13.0557L7.96284 16.9705C7.79541 17.6402 7.11674 18.0474 6.44699 17.88C5.77725 17.7126 5.37005 17.0339 5.53748 16.3641L6.51618 12.4494Z" fill="#13193A"/>
<path d="M14.7206 11.8251C15.2088 12.3133 15.2088 13.1047 14.7206 13.5929L12.5331 15.7804C12.045 16.2685 11.2535 16.2685 10.7654 15.7804C10.2772 15.2922 10.2772 14.5008 10.7654 14.0126L12.9529 11.8251C13.441 11.3369 14.2325 11.3369 14.7206 11.8251Z" fill="#13193A"/>
<path d="M30.134 11.8251C29.6459 11.3369 28.8544 11.3369 28.3663 11.8251C27.8781 12.3133 27.8781 13.1047 28.3663 13.5929L30.5538 15.7804C31.0419 16.2685 31.8334 16.2685 32.3215 15.7804C32.8097 15.2922 32.8097 14.5008 32.3215 14.0126L30.134 11.8251Z" fill="#13193A"/>
<path d="M21.9133 12.9416C22.5902 13.077 23.0292 13.7355 22.8939 14.4125L22.84 14.6817C22.9982 14.7607 23.1408 14.8411 23.2645 14.9185C23.8499 15.2844 24.0279 16.0556 23.662 16.641C23.2961 17.2264 22.5249 17.4044 21.9395 17.0385C21.6716 16.871 21.1884 16.6584 20.7022 16.5997C20.2334 16.5431 19.9173 16.6393 19.6942 16.8624C19.5097 17.0469 19.4492 17.2061 19.4274 17.3339C19.4029 17.4779 19.4179 17.6503 19.4801 17.8434C19.5357 18.016 19.7461 18.2562 20.3456 18.5569C20.3687 18.5668 20.3916 18.5774 20.4143 18.5887L21.7654 19.2643C22.457 19.6101 23.5101 20.2446 23.8985 21.4503C24.2159 22.4354 24.2237 23.8146 23.0726 24.9657C22.3157 25.7226 21.3997 25.9668 20.5813 25.9752L20.5605 26.0791C20.4251 26.7561 19.7666 27.1951 19.0897 27.0597C18.4127 26.9243 17.9737 26.2658 18.1091 25.5888L18.1518 25.375C17.9965 25.2971 17.8564 25.218 17.7345 25.1418C17.1491 24.7759 16.9711 24.0047 17.337 23.4193C17.7029 22.8339 18.4741 22.6559 19.0595 23.0218C19.3274 23.1892 19.8106 23.4019 20.2968 23.4606C20.7656 23.5172 21.0817 23.4209 21.3048 23.1979C21.4893 23.0134 21.5499 22.8542 21.5716 22.7264C21.5961 22.5824 21.5811 22.41 21.5189 22.2169C21.4633 22.0443 21.2529 21.804 20.6534 21.5034C20.6304 21.4935 20.6074 21.4829 20.5847 21.4715L19.2336 20.796C18.5421 20.4502 17.4889 19.8156 17.1005 18.61C16.7832 17.6249 16.7754 16.2457 17.9265 15.0946C18.6809 14.3402 19.5934 14.095 20.4098 14.0851L20.4424 13.9222C20.5778 13.2452 21.2363 12.8062 21.9133 12.9416Z" fill="#13193A"/>
<path d="M30.2382 25.9887C30.7264 25.5005 30.7264 24.7091 30.2382 24.2209C29.7501 23.7328 28.9586 23.7328 28.4704 24.2209L26.2829 26.4084C25.7948 26.8966 25.7948 27.688 26.2829 28.1762C26.7711 28.6644 27.5626 28.6644 28.0507 28.1762L30.2382 25.9887Z" fill="#13193A"/>
<path d="M10.0835 30.4173C9.39314 30.4173 8.8335 30.977 8.8335 31.6673C8.8335 32.3577 9.39314 32.9173 10.0835 32.9173H14.2502C14.9405 32.9173 15.5002 32.3577 15.5002 31.6673C15.5002 30.977 14.9405 30.4173 14.2502 30.4173H10.0835Z" fill="#13193A"/>
<path d="M5.0835 21.6673C5.0835 20.977 5.64314 20.4173 6.3335 20.4173H9.66683C10.3572 20.4173 10.9168 20.977 10.9168 21.6673C10.9168 22.3577 10.3572 22.9173 9.66683 22.9173H6.3335C5.64314 22.9173 5.0835 22.3577 5.0835 21.6673Z" fill="#13193A"/>
<path d="M3.8335 25.4173C3.14314 25.4173 2.5835 25.977 2.5835 26.6673C2.5835 27.3577 3.14314 27.9173 3.8335 27.9173H11.3335C12.0239 27.9173 12.5835 27.3577 12.5835 26.6673C12.5835 25.977 12.0239 25.4173 11.3335 25.4173H3.8335Z" fill="#13193A"/>
</svg>
