<svg width="50" height="50" viewBox="0 0 50 50" fill="none" xmlns="http://www.w3.org/2000/svg">
<path d="M31.25 33.3333L31.1029 34.0688C31.4346 34.1351 31.7696 33.9713 31.9208 33.6687L31.25 33.3333ZM16.6667 18.75L16.3313 18.0792C16.0287 18.2304 15.8649 18.5654 15.9312 18.8971L16.6667 18.75ZM17.4042 18.3812L17.7396 19.0521H17.7396L17.4042 18.3812ZM19.4095 13.107L20.1058 12.8284L19.4095 13.107ZM17.7143 8.86921L17.018 9.14775V9.14775L17.7143 8.86921ZM41.1308 32.2857L40.8522 32.982L41.1308 32.2857ZM36.893 30.5905L37.1716 29.8942H37.1716L36.893 30.5905ZM31.6188 32.5958L32.2896 32.9312V32.9312L31.6188 32.5958ZM34.6667 22.9167C34.6667 23.3309 35.0025 23.6667 35.4167 23.6667C35.8309 23.6667 36.1667 23.3309 36.1667 22.9167H34.6667ZM34.7823 19.7276L35.4752 19.4406L34.7823 19.7276ZM30.2724 15.2177L30.5594 14.5248L30.2724 15.2177ZM27.0833 13.8333C26.6691 13.8333 26.3333 14.1691 26.3333 14.5833C26.3333 14.9975 26.6691 15.3333 27.0833 15.3333V13.8333ZM43 22.9167C43 23.3309 43.3358 23.6667 43.75 23.6667C44.1642 23.6667 44.5 23.3309 44.5 22.9167H43ZM42.4813 16.5386L43.1742 16.2516L42.4813 16.5386ZM33.4614 7.51867L33.7484 6.82576L33.4614 7.51867ZM27.0833 5.5C26.6691 5.5 26.3333 5.83579 26.3333 6.25C26.3333 6.66421 26.6691 7 27.0833 7V5.5ZM43.75 36.1543H43V39.5833H43.75H44.5V36.1543H43.75ZM10.4167 6.25V7H13.8457V6.25V5.5H10.4167V6.25ZM31.25 33.3333C31.3971 32.5979 31.3973 32.5979 31.3975 32.598C31.3975 32.598 31.3977 32.598 31.3977 32.598C31.3979 32.5981 31.3979 32.5981 31.3979 32.5981C31.3979 32.5981 31.3975 32.598 31.3969 32.5978C31.3955 32.5976 31.393 32.597 31.3892 32.5963C31.3817 32.5947 31.3693 32.592 31.3522 32.5883C31.318 32.5807 31.2652 32.5687 31.1953 32.5517C31.0555 32.5177 30.8472 32.4637 30.5827 32.3859C30.0534 32.2303 29.3006 31.9795 28.4204 31.6023C26.6567 30.8464 24.4022 29.5916 22.4053 27.5947L21.875 28.125L21.3447 28.6553C23.5144 30.8251 25.9475 32.1744 27.8296 32.981C28.7723 33.3851 29.5821 33.6552 30.1595 33.825C30.4483 33.91 30.6796 33.97 30.8408 34.0092C30.9214 34.0288 30.9846 34.0432 31.0288 34.053C31.0509 34.0579 31.0682 34.0616 31.0807 34.0642C31.0869 34.0655 31.0918 34.0665 31.0956 34.0673C31.0974 34.0677 31.099 34.068 31.1002 34.0682C31.1008 34.0683 31.1013 34.0685 31.1018 34.0685C31.102 34.0686 31.1023 34.0686 31.1024 34.0687C31.1027 34.0687 31.1029 34.0688 31.25 33.3333ZM21.875 28.125L22.4053 27.5947C20.4084 25.5978 19.1536 23.3433 18.3977 21.5796C18.0205 20.6994 17.7697 19.9466 17.6141 19.4173C17.5363 19.1528 17.4823 18.9445 17.4483 18.8047C17.4313 18.7347 17.4193 18.682 17.4117 18.6478C17.408 18.6307 17.4053 18.6183 17.4037 18.6108C17.403 18.607 17.4024 18.6045 17.4022 18.6031C17.402 18.6025 17.4019 18.6021 17.4019 18.6021C17.4019 18.6021 17.4019 18.6021 17.402 18.6023C17.402 18.6023 17.402 18.6025 17.402 18.6025C17.4021 18.6027 17.4021 18.6029 16.6667 18.75C15.9312 18.8971 15.9313 18.8973 15.9313 18.8976C15.9314 18.8977 15.9314 18.898 15.9315 18.8982C15.9315 18.8987 15.9317 18.8992 15.9318 18.8998C15.932 18.901 15.9323 18.9026 15.9327 18.9044C15.9335 18.9082 15.9345 18.9131 15.9358 18.9193C15.9384 18.9318 15.9421 18.9491 15.947 18.9712C15.9568 19.0154 15.9712 19.0786 15.9908 19.1592C16.03 19.3204 16.09 19.5517 16.175 19.8405C16.3448 20.4179 16.6149 21.2277 17.019 22.1704C17.8256 24.0525 19.1749 26.4856 21.3447 28.6553L21.875 28.125ZM16.6667 18.75L17.0021 19.4208L17.7396 19.0521L17.4042 18.3812L17.0688 17.7104L16.3313 18.0792L16.6667 18.75ZM19.4095 13.107L20.1058 12.8284L18.4107 8.59066L17.7143 8.86921L17.018 9.14775L18.7131 13.3855L19.4095 13.107ZM41.1308 32.2857L41.4093 31.5893L37.1716 29.8942L36.893 30.5905L36.6145 31.2869L40.8522 32.982L41.1308 32.2857ZM31.6188 32.5958L30.9479 32.2604L30.5792 32.9979L31.25 33.3333L31.9208 33.6687L32.2896 32.9312L31.6188 32.5958ZM36.893 30.5905L37.1716 29.8942C34.7973 28.9445 32.0915 29.9732 30.9479 32.2604L31.6188 32.5958L32.2896 32.9312C33.0843 31.3418 34.9646 30.6269 36.6145 31.2869L36.893 30.5905ZM17.4042 18.3812L17.7396 19.0521C20.0268 17.9085 21.0555 15.2027 20.1058 12.8284L19.4095 13.107L18.7131 13.3855C19.3731 15.0354 18.6582 16.9157 17.0688 17.7104L17.4042 18.3812ZM13.8457 6.25V7C15.2428 7 16.4991 7.85058 17.018 9.14775L17.7143 8.86921L18.4107 8.59066C17.664 6.72401 15.8561 5.5 13.8457 5.5V6.25ZM43.75 36.1543H44.5C44.5 34.1439 43.276 32.336 41.4093 31.5893L41.1308 32.2857L40.8522 32.982C42.1494 33.5009 43 34.7572 43 36.1543H43.75ZM39.5833 43.75V43C21.5881 43 7 28.4119 7 10.4167H6.25H5.5C5.5 29.2404 20.7596 44.5 39.5833 44.5V43.75ZM39.5833 43.75V44.5C42.2987 44.5 44.5 42.2987 44.5 39.5833H43.75H43C43 41.4703 41.4703 43 39.5833 43V43.75ZM6.25 10.4167H7C7 8.52969 8.52969 7 10.4167 7V6.25V5.5C7.70127 5.5 5.5 7.70127 5.5 10.4167H6.25ZM35.4167 22.9167H36.1667C36.1667 21.7238 35.9317 20.5427 35.4752 19.4406L34.7823 19.7276L34.0894 20.0146C34.4705 20.9347 34.6667 21.9208 34.6667 22.9167H35.4167ZM34.7823 19.7276L35.4752 19.4406C35.0188 18.3386 34.3497 17.3372 33.5062 16.4938L32.9759 17.0241L32.4456 17.5544C33.1497 18.2586 33.7083 19.0946 34.0894 20.0146L34.7823 19.7276ZM32.9759 17.0241L33.5062 16.4938C32.6628 15.6503 31.6614 14.9812 30.5594 14.5248L30.2724 15.2177L29.9853 15.9106C30.9054 16.2917 31.7414 16.8503 32.4456 17.5544L32.9759 17.0241ZM30.2724 15.2177L30.5594 14.5248C29.4573 14.0683 28.2762 13.8333 27.0833 13.8333V14.5833V15.3333C28.0792 15.3333 29.0653 15.5295 29.9853 15.9106L30.2724 15.2177ZM43.75 22.9167H44.5C44.5 20.6295 44.0495 18.3647 43.1742 16.2516L42.4813 16.5386L41.7884 16.8256C42.5883 18.7567 43 20.8265 43 22.9167H43.75ZM42.4813 16.5386L43.1742 16.2516C42.299 14.1385 41.0161 12.2185 39.3988 10.6012L38.8684 11.1316L38.3381 11.6619C39.8161 13.1399 40.9885 14.8945 41.7884 16.8256L42.4813 16.5386ZM38.8684 11.1316L39.3988 10.6012C37.7815 8.98394 35.8615 7.70103 33.7484 6.82576L33.4614 7.51867L33.1744 8.21158C35.1055 9.01147 36.8601 10.1839 38.3381 11.6619L38.8684 11.1316ZM33.4614 7.51867L33.7484 6.82576C31.6353 5.9505 29.3705 5.5 27.0833 5.5V6.25V7C29.1735 7 31.2433 7.4117 33.1744 8.21158L33.4614 7.51867Z" fill="#28303F"/>
</svg>
