<svg width="50" height="50" viewBox="0 0 50 50" fill="none" xmlns="http://www.w3.org/2000/svg">
<path d="M36.1927 17.0266C41.8718 19.577 45.8332 25.3357 45.8332 32.0312V39.0625C45.8332 41.6513 43.7604 43.75 41.2035 43.75H27.3147C21.2673 43.75 16.1227 39.8368 14.2161 34.375M36.1927 17.0266C34.7312 10.8451 29.2381 6.25 22.685 6.25H20.3702C11.4211 6.25 4.1665 13.5953 4.1665 22.6562V29.6875C4.1665 32.2763 6.23926 34.375 8.79613 34.375H14.2161M36.1927 17.0266C36.4419 18.0807 36.5739 19.181 36.5739 20.3125C36.5739 28.079 30.3556 34.375 22.685 34.375H14.2161" stroke="#28303F" stroke-width="1.5" stroke-linejoin="round"/>
</svg>
