<svg width="60" height="60" viewBox="0 0 60 60" fill="none" xmlns="http://www.w3.org/2000/svg">
<path d="M32.5 5V15C32.5 20.5228 36.9772 25 42.5 25L52.5 25M7.5 15L7.5 45C7.5 50.5228 11.9772 55 17.5 55H42.5C48.0228 55 52.5 50.5228 52.5 45V29.1421C52.5 26.49 51.4464 23.9464 49.5711 22.0711L35.4289 7.92893C33.5536 6.05357 31.01 5 28.3579 5L17.5 5C11.9772 5 7.5 9.47715 7.5 15Z" stroke="#28303F" stroke-width="1.5" stroke-linejoin="round"/>
<path d="M14.7559 34.0796H18.7183C19.6118 34.0796 20.293 34.1479 20.7617 34.2847C21.3916 34.4702 21.9312 34.7998 22.3804 35.2734C22.8296 35.7471 23.1714 36.3281 23.4058 37.0166C23.6401 37.7002 23.7573 38.5449 23.7573 39.5508C23.7573 40.4346 23.6475 41.1963 23.4277 41.8359C23.1592 42.6172 22.7759 43.2495 22.2778 43.7329C21.9019 44.0991 21.394 44.3848 20.7544 44.5898C20.2759 44.7412 19.6362 44.8169 18.8354 44.8169H14.7559V34.0796ZM16.9238 35.896V43.0078H18.5425C19.1479 43.0078 19.585 42.9736 19.8535 42.9053C20.2051 42.8174 20.4956 42.6685 20.7251 42.4585C20.9595 42.2485 21.1499 41.9043 21.2964 41.4258C21.4429 40.9424 21.5161 40.2856 21.5161 39.4556C21.5161 38.6255 21.4429 37.9883 21.2964 37.5439C21.1499 37.0996 20.9448 36.7529 20.6812 36.5039C20.4175 36.2549 20.083 36.0864 19.6777 35.9985C19.375 35.9302 18.7817 35.896 17.8979 35.896H16.9238Z" fill="#28303F"/>
<path d="M25.1636 39.5142C25.1636 38.4204 25.3271 37.5024 25.6543 36.7603C25.8984 36.2134 26.2305 35.7227 26.6504 35.2881C27.0752 34.8535 27.5391 34.5312 28.042 34.3213C28.7109 34.0381 29.4824 33.8965 30.3564 33.8965C31.9385 33.8965 33.2031 34.3872 34.1504 35.3687C35.1025 36.3501 35.5786 37.7148 35.5786 39.4629C35.5786 41.1963 35.1074 42.5537 34.165 43.5352C33.2227 44.5117 31.9629 45 30.3857 45C28.7891 45 27.5195 44.5142 26.5771 43.5425C25.6348 42.5659 25.1636 41.2231 25.1636 39.5142ZM27.3975 39.4409C27.3975 40.6567 27.6782 41.5796 28.2397 42.2095C28.8013 42.8345 29.5142 43.147 30.3784 43.147C31.2427 43.147 31.9507 42.8369 32.5024 42.2168C33.0591 41.5918 33.3374 40.6567 33.3374 39.4116C33.3374 38.1812 33.0664 37.2632 32.5244 36.6577C31.9873 36.0522 31.272 35.7495 30.3784 35.7495C29.4849 35.7495 28.7646 36.0571 28.2178 36.6724C27.6709 37.2827 27.3975 38.2056 27.3975 39.4409Z" fill="#28303F"/>
<path d="M44.1479 40.8691L46.25 41.5356C45.9277 42.7075 45.3906 43.5791 44.6387 44.1504C43.8916 44.7168 42.9419 45 41.7896 45C40.3638 45 39.1919 44.5142 38.2739 43.5425C37.356 42.5659 36.897 41.2329 36.897 39.5435C36.897 37.7563 37.3584 36.3696 38.2812 35.3833C39.2041 34.3921 40.4175 33.8965 41.9214 33.8965C43.2349 33.8965 44.3018 34.2847 45.1221 35.061C45.6104 35.52 45.9766 36.1792 46.2207 37.0386L44.0747 37.5513C43.9478 36.9946 43.6816 36.5552 43.2764 36.2329C42.876 35.9106 42.3877 35.7495 41.8115 35.7495C41.0156 35.7495 40.3687 36.0352 39.8706 36.6064C39.3774 37.1777 39.1309 38.103 39.1309 39.3823C39.1309 40.7397 39.375 41.7065 39.8633 42.2827C40.3516 42.8589 40.9863 43.147 41.7676 43.147C42.3438 43.147 42.8394 42.9639 43.2544 42.5977C43.6694 42.2314 43.9673 41.6553 44.1479 40.8691Z" fill="#28303F"/>
</svg>
