<svg width="60" height="60" viewBox="0 0 60 60" fill="none" xmlns="http://www.w3.org/2000/svg">
<path d="M32.5 5V15C32.5 20.5228 36.9772 25 42.5 25L52.5 25M7.5 15L7.5 45C7.5 50.5228 11.9772 55 17.5 55H42.5C48.0228 55 52.5 50.5228 52.5 45V29.1421C52.5 26.49 51.4464 23.9464 49.5711 22.0711L35.4289 7.92893C33.5536 6.05357 31.01 5 28.3579 5L17.5 5C11.9772 5 7.5 9.47715 7.5 15ZM25 34.5069V40.4931C25 43.4882 28.338 45.2746 30.8301 43.6133L35.3197 40.6202C37.5462 39.1359 37.5462 35.8641 35.3197 34.3798L30.8301 31.3867C28.338 29.7254 25 31.5118 25 34.5069Z" stroke="#28303F" stroke-width="1.5" stroke-linejoin="round"/>
</svg>
