<svg width="60" height="60" viewBox="0 0 60 60" fill="none" xmlns="http://www.w3.org/2000/svg">
<path d="M32.5 5V15C32.5 20.5228 36.9772 25 42.5 25L52.5 25M7.5 15L7.5 45C7.5 50.5228 11.9772 55 17.5 55H42.5C48.0228 55 52.5 50.5228 52.5 45V29.1421C52.5 26.49 51.4464 23.9464 49.5711 22.0711L35.4289 7.92893C33.5536 6.05357 31.01 5 28.3579 5L17.5 5C11.9772 5 7.5 9.47715 7.5 15Z" stroke="#28303F" stroke-width="1.5" stroke-linejoin="round"/>
<path d="M15 45.0005V34.2632H18.479C19.7974 34.2632 20.6567 34.3169 21.0571 34.4243C21.6724 34.5854 22.1875 34.937 22.6025 35.479C23.0176 36.0161 23.2251 36.7119 23.2251 37.5664C23.2251 38.2256 23.1055 38.7798 22.8662 39.229C22.627 39.6782 22.3218 40.0322 21.9507 40.291C21.5845 40.5449 21.2109 40.7134 20.8301 40.7964C20.3125 40.8989 19.563 40.9502 18.5815 40.9502H17.168V45.0005H15ZM17.168 36.0796V39.1265H18.3545C19.209 39.1265 19.7803 39.0703 20.0684 38.958C20.3564 38.8457 20.5811 38.6699 20.7422 38.4307C20.9082 38.1914 20.9912 37.9131 20.9912 37.5957C20.9912 37.2051 20.8765 36.8828 20.647 36.6289C20.4175 36.375 20.127 36.2163 19.7754 36.1528C19.5166 36.104 18.9966 36.0796 18.2153 36.0796H17.168Z" fill="#28303F"/>
<path d="M25.0269 45.0005V34.2632H27.1362L31.5308 41.4336V34.2632H33.5449V45.0005H31.3696L27.041 37.9985V45.0005H25.0269Z" fill="#28303F"/>
<path d="M40.8398 41.0527V39.2437H45.5127V43.521C45.0586 43.9604 44.3994 44.3486 43.5352 44.6855C42.6758 45.0176 41.8042 45.1836 40.9204 45.1836C39.7974 45.1836 38.8184 44.9492 37.9834 44.4805C37.1484 44.0068 36.521 43.333 36.1011 42.459C35.6812 41.5801 35.4712 40.6255 35.4712 39.5952C35.4712 38.4771 35.7056 37.4834 36.1743 36.6143C36.6431 35.7451 37.3291 35.0786 38.2324 34.6147C38.9209 34.2583 39.7778 34.0801 40.8032 34.0801C42.1362 34.0801 43.1763 34.3608 43.9233 34.9224C44.6753 35.479 45.1587 36.2505 45.3735 37.2368L43.2202 37.6396C43.0688 37.1123 42.7832 36.6973 42.3633 36.3945C41.9482 36.0869 41.4282 35.9331 40.8032 35.9331C39.856 35.9331 39.1016 36.2334 38.54 36.834C37.9834 37.4346 37.7051 38.3257 37.7051 39.5073C37.7051 40.7817 37.9883 41.7388 38.5547 42.3784C39.1211 43.0132 39.8633 43.3306 40.7812 43.3306C41.2354 43.3306 41.6895 43.2427 42.1436 43.0669C42.6025 42.8862 42.9956 42.6689 43.3228 42.415V41.0527H40.8398Z" fill="#28303F"/>
</svg>
