<svg width="24" height="28" viewBox="0 0 24 28" fill="none" xmlns="http://www.w3.org/2000/svg">
<path d="M0.75 21.5H0H0.75ZM0.750001 6.5H1.5H0.750001ZM5.75 1.5V0.75V1.5ZM18.25 1.5V0.750001V1.5ZM23.25 6.5H22.5H23.25ZM23.25 14.4289H24H23.25ZM11.1789 26.5V25.75V26.5ZM5.75 26.5V27.25V26.5ZM21.7855 17.9645L21.2552 17.4341V17.4341L21.7855 17.9645ZM14.7145 25.0355L15.2448 25.5659V25.5659L14.7145 25.0355ZM13.25 21.5H14H13.25ZM18.25 16.5V15.75V16.5ZM12.75 6.5C12.75 6.08579 12.4142 5.75 12 5.75C11.5858 5.75 11.25 6.08579 11.25 6.5H12.75ZM11.25 14C11.25 14.4142 11.5858 14.75 12 14.75C12.4142 14.75 12.75 14.4142 12.75 14H11.25ZM15.75 11C16.1642 11 16.5 10.6642 16.5 10.25C16.5 9.83579 16.1642 9.5 15.75 9.5V11ZM8.25 9.5C7.83579 9.5 7.5 9.83579 7.5 10.25C7.5 10.6642 7.83579 11 8.25 11V9.5ZM0.75 21.5H1.5L1.5 6.5H0.750001H6.55651e-07L0 21.5H0.75ZM5.75 1.5V2.25L18.25 2.25V1.5V0.750001L5.75 0.75V1.5ZM23.25 6.5H22.5V14.4289H23.25H24V6.5H23.25ZM11.1789 26.5V25.75H5.75V26.5V27.25H11.1789V26.5ZM21.7855 17.9645L21.2552 17.4341L14.1841 24.5052L14.7145 25.0355L15.2448 25.5659L22.3159 18.4948L21.7855 17.9645ZM11.1789 26.5L11.1789 27.25C12.7039 27.25 14.1665 26.6442 15.2448 25.5659L14.7145 25.0355L14.1841 24.5052C13.3871 25.3022 12.3061 25.75 11.1789 25.75V26.5ZM23.25 14.4289H22.5C22.5 15.5561 22.0522 16.6371 21.2552 17.4341L21.7855 17.9645L22.3159 18.4948C23.3942 17.4165 24 15.9539 24 14.4289H23.25ZM0.750001 6.5H1.5C1.5 4.15279 3.40279 2.25 5.75 2.25V1.5V0.75C2.57436 0.75 7.7486e-07 3.32436 6.55651e-07 6.5H0.750001ZM0.75 21.5H0C-1.19209e-07 24.6756 2.57436 27.25 5.75 27.25V26.5V25.75C3.40279 25.75 1.5 23.8472 1.5 21.5H0.75ZM18.25 1.5V2.25C20.5972 2.25 22.5 4.15279 22.5 6.5H23.25H24C24 3.32436 21.4256 0.750001 18.25 0.750001V1.5ZM13.25 26.5H14L14 21.5H13.25H12.5L12.5 26.5H13.25ZM18.25 16.5V17.25L23.25 17.25V16.5V15.75L18.25 15.75V16.5ZM13.25 21.5H14C14 19.1528 15.9028 17.25 18.25 17.25V16.5V15.75C15.0744 15.75 12.5 18.3244 12.5 21.5H13.25ZM12 6.5H11.25V14H12H12.75V6.5H12ZM15.75 10.25V9.5H8.25V10.25V11H15.75V10.25Z" fill="#28303F"/>
</svg>
