<svg width="30" height="30" viewBox="0 0 30 30" fill="none" xmlns="http://www.w3.org/2000/svg">
<path d="M18.75 13.125V12.5C18.75 10.4289 20.4289 8.75 22.5 8.75M26.25 13.125V12.5C26.25 10.4289 24.5711 8.75 22.5 8.75M22.5 8.75C23.8807 8.75 25 7.63071 25 6.25C25 4.86929 23.8807 3.75 22.5 3.75C21.1193 3.75 20 4.86929 20 6.25C20 7.63071 21.1193 8.75 22.5 8.75ZM26.25 21.6926V23.75C26.25 25.1307 25.1307 26.25 23.75 26.25C12.7043 26.25 3.75 17.2957 3.75 6.25C3.75 4.86929 4.86929 3.75 6.25 3.75H8.30742C9.32968 3.75 10.249 4.37238 10.6286 5.32152L11.6457 7.8642C12.1286 9.07142 11.6055 10.4473 10.4425 11.0287L10 11.25C10 11.25 10.625 14.375 13.125 16.875C15.625 19.375 18.75 20 18.75 20L18.9713 19.5575C19.5527 18.3945 20.9286 17.8714 22.1358 18.3543L24.6785 19.3714C25.6276 19.751 26.25 20.6703 26.25 21.6926Z" stroke="#28303F" stroke-width="1.5" stroke-linecap="round" stroke-linejoin="round"/>
</svg>
