<svg width="30" height="30" viewBox="0 0 30 30" fill="none" xmlns="http://www.w3.org/2000/svg">
<path d="M5.56937 17.3501L4.9978 16.8645L4.9978 16.8645L5.56937 17.3501ZM6.66845 14.7981L5.92321 14.7137L6.66845 14.7981ZM23.3316 14.7981L24.0768 14.7137L23.3316 14.7981ZM24.4306 17.3501L25.0022 16.8645V16.8645L24.4306 17.3501ZM22.9005 10.9925L22.1552 11.077V11.077L22.9005 10.9925ZM7.09955 10.9925L7.84478 11.077L7.09955 10.9925ZM19.4523 24.0132C19.5977 23.6253 19.4011 23.1931 19.0132 23.0477C18.6253 22.9023 18.1931 23.0989 18.0477 23.4868L19.4523 24.0132ZM11.9523 23.4868C11.8069 23.0989 11.3747 22.9023 10.9868 23.0477C10.5989 23.1931 10.4023 23.6253 10.5477 24.0132L11.9523 23.4868ZM22.7123 21.25V20.5H7.28767V21.25V22H22.7123V21.25ZM22.9005 10.9925L22.1552 11.077L22.5863 14.8825L23.3316 14.7981L24.0768 14.7137L23.6457 10.9081L22.9005 10.9925ZM6.66845 14.7981L7.41368 14.8825L7.84478 11.077L7.09955 10.9925L6.35431 10.9081L5.92321 14.7137L6.66845 14.7981ZM5.56937 17.3501L6.14093 17.8357C6.84734 17.0042 7.29002 15.9742 7.41368 14.8825L6.66845 14.7981L5.92321 14.7137C5.83264 15.5132 5.50882 16.263 4.9978 16.8645L5.56937 17.3501ZM23.3316 14.7981L22.5863 14.8825C22.71 15.9742 23.1527 17.0042 23.8591 17.8357L24.4306 17.3501L25.0022 16.8645C24.4912 16.263 24.1674 15.5132 24.0768 14.7137L23.3316 14.7981ZM7.28767 21.25V20.5C6.00855 20.5 5.23478 18.9022 6.14093 17.8357L5.56937 17.3501L4.9978 16.8645C3.32044 18.8387 4.64348 22 7.28767 22V21.25ZM22.7123 21.25V22C25.3565 22 26.6796 18.8387 25.0022 16.8645L24.4306 17.3501L23.8591 17.8357C24.7652 18.9022 23.9915 20.5 22.7123 20.5V21.25ZM22.9005 10.9925L23.6457 10.9081C23.137 6.41744 19.4351 3 15 3V3.75V4.5C18.6375 4.5 21.7285 7.30969 22.1552 11.077L22.9005 10.9925ZM7.09955 10.9925L7.84478 11.077C8.27154 7.30969 11.3625 4.5 15 4.5V3.75V3C10.5649 3 6.86302 6.41744 6.35431 10.9081L7.09955 10.9925ZM18.75 23.75L18.0477 23.4868C17.6158 24.6392 16.4308 25.5 15 25.5V26.25V27C17.0317 27 18.7925 25.7738 19.4523 24.0132L18.75 23.75ZM15 26.25V25.5C13.5692 25.5 12.3842 24.6392 11.9523 23.4868L11.25 23.75L10.5477 24.0132C11.2075 25.7738 12.9683 27 15 27V26.25Z" fill="#28303F"/>
</svg>
