<svg width="30" height="30" viewBox="0 0 30 30" fill="none" xmlns="http://www.w3.org/2000/svg">
<path d="M25.9299 19.6507L25.2903 19.2591V19.2591L25.9299 19.6507ZM24.7367 21.5993L25.3763 21.9909V21.9909L24.7367 21.5993ZM4.07011 10.3493L3.4305 9.95761H3.4305L4.07011 10.3493ZM5.2633 8.40071L5.90291 8.79237H5.90291L5.2633 8.40071ZM8.52314 7.57716L8.88173 6.91843L8.88173 6.91843L8.52314 7.57716ZM4.94359 13.4228L4.585 14.0816H4.585L4.94359 13.4228ZM21.4769 22.4228L21.1183 23.0816L21.1183 23.0816L21.4769 22.4228ZM25.0564 16.5772L24.6978 17.2359L25.0564 16.5772ZM5.2633 21.5993L4.62369 21.9909H4.62369L5.2633 21.5993ZM4.07011 19.6507L4.70972 19.2591H4.70972L4.07011 19.6507ZM24.7367 8.40073L25.3763 8.00907V8.00907L24.7367 8.40073ZM25.9299 10.3493L25.2903 10.7409V10.7409L25.9299 10.3493ZM25.0564 13.4228L25.415 14.0816V14.0816L25.0564 13.4228ZM21.4769 7.57717L21.8354 8.2359L21.4769 7.57717ZM4.94358 16.5772L5.30217 17.2359H5.30217L4.94358 16.5772ZM8.52314 22.4228L8.16457 21.7641L8.16456 21.7641L8.52314 22.4228ZM21.35 7.64622L20.9914 6.9875V6.9875L21.35 7.64622ZM8.65 7.64621L8.29142 8.30494L8.29142 8.30494L8.65 7.64621ZM21.35 22.3538L21.7086 21.6951H21.7086L21.35 22.3538ZM8.65 22.3538L9.00858 23.0125L9.00858 23.0125L8.65 22.3538ZM13.8068 3.75V4.5H16.1932V3.75V3H13.8068V3.75ZM16.1932 26.25V25.5H13.8068V26.25V27H16.1932V26.25ZM13.8068 26.25V25.5C12.8609 25.5 12.1704 24.7875 12.1704 24H11.4204H10.6704C10.6704 25.6978 12.1168 27 13.8068 27V26.25ZM18.5796 24H17.8296C17.8296 24.7875 17.1391 25.5 16.1932 25.5V26.25V27C17.8832 27 19.3296 25.6978 19.3296 24H18.5796ZM16.1932 3.75V4.5C17.1391 4.5 17.8296 5.21254 17.8296 6H18.5796H19.3296C19.3296 4.30218 17.8832 3 16.1932 3V3.75ZM13.8068 3.75V3C12.1168 3 10.6704 4.30218 10.6704 6H11.4204H12.1704C12.1704 5.21254 12.8609 4.5 13.8068 4.5V3.75ZM25.9299 19.6507L25.2903 19.2591L24.0971 21.2076L24.7367 21.5993L25.3763 21.9909L26.5695 20.0424L25.9299 19.6507ZM4.07011 10.3493L4.70972 10.7409L5.90291 8.79237L5.2633 8.40071L4.62369 8.00905L3.4305 9.95761L4.07011 10.3493ZM5.2633 8.40071L5.90291 8.79237C6.34334 8.07311 7.3569 7.79622 8.16456 8.23588L8.52314 7.57716L8.88173 6.91843C7.40662 6.11545 5.50121 6.576 4.62369 8.00905L5.2633 8.40071ZM4.94359 13.4228L5.30217 12.7641C4.5179 12.3372 4.28652 11.432 4.70972 10.7409L4.07011 10.3493L3.4305 9.95761C2.53574 11.4188 3.0865 13.2658 4.585 14.0816L4.94359 13.4228ZM24.7367 21.5993L24.0971 21.2076C23.6567 21.9269 22.6431 22.2038 21.8354 21.7641L21.4769 22.4228L21.1183 23.0816C22.5934 23.8845 24.4988 23.424 25.3763 21.9909L24.7367 21.5993ZM25.9299 19.6507L26.5695 20.0424C27.4643 18.5812 26.9135 16.7341 25.415 15.9184L25.0564 16.5772L24.6978 17.2359C25.4821 17.6628 25.7135 18.5679 25.2903 19.2591L25.9299 19.6507ZM5.2633 21.5993L5.90291 21.2076L4.70972 19.2591L4.07011 19.6507L3.4305 20.0424L4.62369 21.9909L5.2633 21.5993ZM24.7367 8.40073L24.0971 8.79239L25.2903 10.7409L25.9299 10.3493L26.5695 9.95763L25.3763 8.00907L24.7367 8.40073ZM25.9299 10.3493L25.2903 10.7409C25.7135 11.4321 25.4821 12.3372 24.6978 12.7641L25.0564 13.4228L25.415 14.0816C26.9135 13.2658 27.4643 11.4188 26.5695 9.95762L25.9299 10.3493ZM21.4769 7.57717L21.8354 8.2359C22.6431 7.79624 23.6567 8.07313 24.0971 8.79239L24.7367 8.40073L25.3763 8.00907C24.4988 6.57601 22.5934 6.11546 21.1183 6.91845L21.4769 7.57717ZM4.07011 19.6507L4.70972 19.2591C4.28652 18.568 4.5179 17.6628 5.30217 17.2359L4.94358 16.5772L4.585 15.9184C3.0865 16.7342 2.53574 18.5812 3.4305 20.0424L4.07011 19.6507ZM5.2633 21.5993L4.62369 21.9909C5.50121 23.424 7.40662 23.8846 8.88173 23.0816L8.52314 22.4228L8.16456 21.7641C7.3569 22.2038 6.34334 21.9269 5.90291 21.2076L5.2633 21.5993ZM21.35 7.64622L21.7086 8.30495L21.8354 8.2359L21.4769 7.57717L21.1183 6.91845L20.9914 6.9875L21.35 7.64622ZM8.52314 7.57716L8.16456 8.23588L8.29142 8.30494L8.65 7.64621L9.00858 6.98749L8.88173 6.91843L8.52314 7.57716ZM21.4769 22.4228L21.8354 21.7641L21.7086 21.6951L21.35 22.3538L20.9914 23.0125L21.1183 23.0816L21.4769 22.4228ZM8.65 22.3538L8.29142 21.6951L8.16457 21.7641L8.52314 22.4228L8.88172 23.0816L9.00858 23.0125L8.65 22.3538ZM4.94359 13.4228L4.585 14.0816C5.31266 14.4777 5.31267 15.5223 4.585 15.9184L4.94358 16.5772L5.30217 17.2359C7.07361 16.2716 7.07361 13.7284 5.30217 12.7641L4.94359 13.4228ZM8.65 22.3538L9.00858 23.0125C9.75777 22.6047 10.6704 23.147 10.6704 24H11.4204H12.1704C12.1704 22.009 10.0401 20.7431 8.29142 21.6951L8.65 22.3538ZM18.5796 24H19.3296C19.3296 23.147 20.2422 22.6047 20.9914 23.0125L21.35 22.3538L21.7086 21.6951C19.9599 20.7431 17.8296 22.009 17.8296 24H18.5796ZM25.0564 16.5772L25.415 15.9184C24.6873 15.5223 24.6873 14.4777 25.415 14.0816L25.0564 13.4228L24.6978 12.7641C22.9264 13.7284 22.9264 16.2716 24.6978 17.2359L25.0564 16.5772ZM8.65 7.64621L8.29142 8.30494C10.0401 9.25687 12.1704 7.99103 12.1704 6H11.4204H10.6704C10.6704 6.853 9.75777 7.39531 9.00858 6.98749L8.65 7.64621ZM21.35 7.64622L20.9914 6.9875C20.2422 7.39533 19.3296 6.85301 19.3296 6H18.5796H17.8296C17.8296 7.99104 19.9599 9.25688 21.7086 8.30495L21.35 7.64622ZM18.75 15H18C18 16.6569 16.6569 18 15 18V18.75V19.5C17.4853 19.5 19.5 17.4853 19.5 15H18.75ZM15 18.75V18C13.3432 18 12 16.6569 12 15H11.25H10.5C10.5 17.4853 12.5147 19.5 15 19.5V18.75ZM11.25 15H12C12 13.3431 13.3432 12 15 12V11.25V10.5C12.5147 10.5 10.5 12.5147 10.5 15H11.25ZM15 11.25V12C16.6569 12 18 13.3431 18 15H18.75H19.5C19.5 12.5147 17.4853 10.5 15 10.5V11.25Z" fill="#28303F"/>
</svg>
