<svg width="30" height="30" viewBox="0 0 30 30" fill="none" xmlns="http://www.w3.org/2000/svg">
<path d="M3.75 22.5H3H3.75ZM3.75 7.5H4.5H3.75ZM8.75 2.5V1.75V2.5ZM21.25 2.5V1.75V2.5ZM26.25 7.5H25.5H26.25ZM26.25 15.4289H27H26.25ZM14.1789 27.5V26.75V27.5ZM8.75 27.5V28.25V27.5ZM24.7855 18.9645L24.2552 18.4341V18.4341L24.7855 18.9645ZM17.7145 26.0355L18.2448 26.5659V26.5659L17.7145 26.0355ZM16.25 22.5H17H16.25ZM21.25 17.5V16.75V17.5ZM15.75 7.5C15.75 7.08579 15.4142 6.75 15 6.75C14.5858 6.75 14.25 7.08579 14.25 7.5H15.75ZM14.25 15C14.25 15.4142 14.5858 15.75 15 15.75C15.4142 15.75 15.75 15.4142 15.75 15H14.25ZM18.75 12C19.1642 12 19.5 11.6642 19.5 11.25C19.5 10.8358 19.1642 10.5 18.75 10.5V12ZM11.25 10.5C10.8358 10.5 10.5 10.8358 10.5 11.25C10.5 11.6642 10.8358 12 11.25 12V10.5ZM3.75 22.5H4.5L4.5 7.5H3.75H3L3 22.5H3.75ZM8.75 2.5V3.25L21.25 3.25V2.5V1.75L8.75 1.75V2.5ZM26.25 7.5H25.5V15.4289H26.25H27V7.5H26.25ZM14.1789 27.5V26.75H8.75V27.5V28.25H14.1789V27.5ZM24.7855 18.9645L24.2552 18.4341L17.1841 25.5052L17.7145 26.0355L18.2448 26.5659L25.3159 19.4948L24.7855 18.9645ZM14.1789 27.5L14.1789 28.25C15.7039 28.25 17.1665 27.6442 18.2448 26.5659L17.7145 26.0355L17.1841 25.5052C16.3871 26.3022 15.3061 26.75 14.1789 26.75V27.5ZM26.25 15.4289H25.5C25.5 16.5561 25.0522 17.6371 24.2552 18.4341L24.7855 18.9645L25.3159 19.4948C26.3942 18.4165 27 16.9539 27 15.4289H26.25ZM3.75 7.5H4.5C4.5 5.15279 6.40279 3.25 8.75 3.25V2.5V1.75C5.57436 1.75 3 4.32436 3 7.5H3.75ZM3.75 22.5H3C3 25.6756 5.57436 28.25 8.75 28.25V27.5V26.75C6.40279 26.75 4.5 24.8472 4.5 22.5H3.75ZM21.25 2.5V3.25C23.5972 3.25 25.5 5.15279 25.5 7.5H26.25H27C27 4.32436 24.4256 1.75 21.25 1.75V2.5ZM16.25 27.5H17L17 22.5H16.25H15.5L15.5 27.5H16.25ZM21.25 17.5V18.25L26.25 18.25V17.5V16.75L21.25 16.75V17.5ZM16.25 22.5H17C17 20.1528 18.9028 18.25 21.25 18.25V17.5V16.75C18.0744 16.75 15.5 19.3244 15.5 22.5H16.25ZM15 7.5H14.25V15H15H15.75V7.5H15ZM18.75 11.25V10.5H11.25V11.25V12H18.75V11.25Z" fill="#28303F"/>
</svg>
