<svg width="30" height="30" viewBox="0 0 30 30" fill="none" xmlns="http://www.w3.org/2000/svg">
<path d="M23.75 2.5H26.25C26.9404 2.5 27.5 3.05964 27.5 3.75V6.25M26.25 3.75C16.3231 11.7392 11.1777 13.8912 2.5 15M22.5 12.5V25C22.5 26.3807 23.6193 27.5 25 27.5C26.3807 27.5 27.5 26.3807 27.5 25V12.5C27.5 11.1193 26.3807 10 25 10C23.6193 10 22.5 11.1193 22.5 12.5ZM2.5 22.5L2.5 25C2.5 26.3807 3.61929 27.5 5 27.5C6.38071 27.5 7.5 26.3807 7.5 25L7.5 22.5C7.5 21.1193 6.38071 20 5 20C3.61929 20 2.5 21.1193 2.5 22.5ZM12.5 17.5V25C12.5 26.3807 13.6193 27.5 15 27.5C16.3807 27.5 17.5 26.3807 17.5 25V17.5C17.5 16.1193 16.3807 15 15 15C13.6193 15 12.5 16.1193 12.5 17.5Z" stroke="#28303F" stroke-width="1.5" stroke-linecap="round" stroke-linejoin="round"/>
</svg>
