<svg width="30" height="30" viewBox="0 0 30 30" fill="none" xmlns="http://www.w3.org/2000/svg">
<path d="M21.7157 10.2159C25.1232 11.7462 27.5 15.2014 27.5 19.2188V23.4375C27.5 24.9908 26.2563 26.25 24.7222 26.25H16.3889C12.7605 26.25 9.67373 23.9021 8.52974 20.625M21.7157 10.2159C20.8388 6.50707 17.543 3.75 13.6111 3.75H12.2222C6.85279 3.75 2.5 8.1572 2.5 13.5938V17.8125C2.5 19.3658 3.74365 20.625 5.27778 20.625H8.52974M21.7157 10.2159C21.8653 10.8484 21.9444 11.5086 21.9444 12.1875C21.9444 16.8474 18.2135 20.625 13.6111 20.625H8.52974" stroke="#28303F" stroke-width="1.5" stroke-linejoin="round"/>
</svg>
