<svg width="30" height="30" viewBox="0 0 30 30" fill="none" xmlns="http://www.w3.org/2000/svg">
<ellipse cx="15" cy="20.625" rx="7.5" ry="3.125" stroke="#28303F" stroke-width="1.5" stroke-linejoin="round"/>
<circle cx="15" cy="10" r="3.75" stroke="#28303F" stroke-width="1.5" stroke-linejoin="round"/>
<path d="M7.69043 16.7871C6.82637 17.3075 6.13689 17.9208 5.67188 18.5967C5.28096 18.6924 4.92399 18.8029 4.60938 18.9287C4.09625 19.134 3.73127 19.3601 3.50684 19.5723C3.28429 19.7827 3.25008 19.9274 3.25 20C3.25 20.0725 3.28415 20.2171 3.50684 20.4277C3.73125 20.64 4.0962 20.866 4.60938 21.0713C4.75075 21.1278 4.90101 21.1806 5.05859 21.2314C5.1774 21.8549 5.47789 22.4467 5.92871 22.9922C5.23682 22.8605 4.60236 22.6841 4.05176 22.4639C3.43412 22.2168 2.88361 21.9034 2.47559 21.5176C2.06612 21.1302 1.75 20.6176 1.75 20C1.75008 19.3824 2.06612 18.8698 2.47559 18.4824C2.88361 18.0966 3.43415 17.7832 4.05176 17.5361C5.04353 17.1394 6.30549 16.8773 7.69043 16.7871Z" fill="#28303F"/>
<path d="M22.3086 16.7871C23.6939 16.8772 24.9562 17.1394 25.9482 17.5361C26.5658 17.7832 27.1164 18.0966 27.5244 18.4824C27.9339 18.8698 28.2499 19.3824 28.25 20C28.25 20.6177 27.9339 21.1302 27.5244 21.5176C27.1164 21.9035 26.5659 22.2168 25.9482 22.4639C25.3974 22.6842 24.7626 22.8605 24.0703 22.9922C24.5213 22.4466 24.8216 21.855 24.9404 21.2314C25.0984 21.1805 25.249 21.1279 25.3906 21.0713C25.9038 20.866 26.2687 20.64 26.4932 20.4277C26.7159 20.217 26.75 20.0725 26.75 20C26.7499 19.9274 26.7157 19.7827 26.4932 19.5723C26.2687 19.3601 25.9037 19.1339 25.3906 18.9287C25.0758 18.8028 24.7184 18.6924 24.3271 18.5967C23.862 17.9207 23.1728 17.3075 22.3086 16.7871Z" fill="#28303F"/>
<path d="M21.2495 8C23.0444 8 24.4995 9.45507 24.4995 11.25C24.4995 13.0449 23.0444 14.5 21.2495 14.5C20.6905 14.4999 20.1649 14.358 19.7056 14.1094C20.0377 13.7294 20.3239 13.3092 20.5571 12.8564C20.7696 12.9482 21.0034 13 21.2495 13C22.216 13 22.9995 12.2165 22.9995 11.25C22.9995 10.2835 22.216 9.5 21.2495 9.5C21.2423 9.5 21.2352 9.50089 21.228 9.50098C21.1873 8.9856 21.0844 8.48824 20.9263 8.01562C21.0326 8.00512 21.1404 8.00001 21.2495 8Z" fill="#28303F"/>
<path d="M8.75 8C8.85908 8 8.96692 8.00513 9.07324 8.01562C8.91507 8.48824 8.81123 8.9856 8.77051 9.50098C8.76368 9.5009 8.75685 9.5 8.75 9.5C7.7835 9.5 7 10.2835 7 11.25C7 12.2165 7.7835 13 8.75 13C8.99566 13 9.22925 12.9488 9.44141 12.8574C9.67443 13.3098 9.96114 13.7296 10.293 14.1094C9.83376 14.3577 9.3087 14.5 8.75 14.5C6.95507 14.5 5.5 13.0449 5.5 11.25C5.5 9.45507 6.95507 8 8.75 8Z" fill="#28303F"/>
</svg>
