<svg width="30" height="30" viewBox="0 0 30 30" fill="none" xmlns="http://www.w3.org/2000/svg">
<path d="M21.25 16.25H13.75M21.25 11.25H13.75M21.25 21.25H13.75M20 2.5V6.25M10 2.5V6.25M8.75 27.5H21.25C24.0114 27.5 26.25 25.2614 26.25 22.5V9.375C26.25 6.61358 24.0114 4.375 21.25 4.375H8.75C5.98858 4.375 3.75 6.61358 3.75 9.375V22.5C3.75 25.2614 5.98858 27.5 8.75 27.5Z" stroke="#28303F" stroke-width="1.5" stroke-linecap="round"/>
<path d="M10.625 11.25C10.625 11.9404 10.0654 12.5 9.375 12.5C8.68464 12.5 8.125 11.9404 8.125 11.25C8.125 10.5596 8.68464 10 9.375 10C10.0654 10 10.625 10.5596 10.625 11.25Z" fill="#28303F"/>
<path d="M10.625 16.25C10.625 16.9404 10.0654 17.5 9.375 17.5C8.68464 17.5 8.125 16.9404 8.125 16.25C8.125 15.5596 8.68464 15 9.375 15C10.0654 15 10.625 15.5596 10.625 16.25Z" fill="#28303F"/>
<path d="M10.625 21.25C10.625 21.9404 10.0654 22.5 9.375 22.5C8.68464 22.5 8.125 21.9404 8.125 21.25C8.125 20.5596 8.68464 20 9.375 20C10.0654 20 10.625 20.5596 10.625 21.25Z" fill="#28303F"/>
</svg>
