<svg width="131" height="71" viewBox="0 0 131 71" fill="none" xmlns="http://www.w3.org/2000/svg">
<path id="Vector 176" d="M129.289 69.9718C130.102 69.8119 130.632 69.0234 130.472 68.2105C130.312 67.3977 129.523 66.8683 128.71 67.0282L129.289 69.9718ZM77.5 33.5L76.1649 34.1838L77.5 33.5ZM0.12193 13.9077C-0.205237 14.6687 0.146525 15.551 0.907612 15.8781L13.3102 21.2096C14.0713 21.5368 14.9535 21.185 15.2807 20.4239C15.6079 19.6628 15.2561 18.7806 14.495 18.4535L3.47046 13.7144L8.20957 2.68981C8.53673 1.92872 8.18497 1.04652 7.42388 0.719352C6.6628 0.392185 5.78059 0.743946 5.45343 1.50503L0.12193 13.9077ZM129 68.5C128.71 67.0282 128.711 67.0281 128.712 67.0279C128.712 67.0279 128.713 67.0278 128.713 67.0277C128.714 67.0276 128.714 67.0276 128.713 67.0277C128.712 67.0279 128.709 67.0284 128.705 67.0293C128.696 67.031 128.679 67.0339 128.656 67.038C128.609 67.0461 128.534 67.0585 128.432 67.0737C128.228 67.104 127.916 67.1452 127.505 67.1846C126.684 67.2635 125.471 67.3348 123.943 67.2974C120.887 67.2225 116.578 66.7125 111.625 64.9609C101.759 61.4718 89.1717 52.9973 78.8351 32.8162L76.1649 34.1838C86.8283 55.0028 99.9905 64.0283 110.625 67.7892C115.922 69.6626 120.551 70.2151 123.869 70.2965C125.529 70.3371 126.863 70.2601 127.792 70.1709C128.256 70.1263 128.62 70.0787 128.873 70.0411C128.999 70.0224 129.098 70.0061 129.168 69.994C129.203 69.988 129.23 69.983 129.251 69.9792C129.261 69.9773 129.269 69.9757 129.276 69.9745C129.279 69.9739 129.282 69.9734 129.284 69.9729C129.285 69.9727 129.286 69.9724 129.287 69.9723C129.288 69.9721 129.289 69.9718 129 68.5ZM78.8351 32.8162C67.9806 11.6242 48.2761 6.7728 31.6025 7.14717C23.2634 7.33441 15.61 8.82295 10.0509 10.259C7.26809 10.9779 5.00194 11.6857 3.42721 12.2155C2.63966 12.4804 2.02451 12.7011 1.60356 12.8565C1.39307 12.9342 1.23108 12.9957 1.12033 13.0382C1.06496 13.0595 1.02239 13.0761 0.992958 13.0876C0.978244 13.0934 0.966816 13.0979 0.958715 13.1011C0.954665 13.1027 0.951447 13.1039 0.949066 13.1049C0.947875 13.1054 0.946718 13.1058 0.946123 13.1061C0.945176 13.1064 0.94444 13.1067 1.5 14.5C2.05556 15.8934 2.05524 15.8935 2.05514 15.8935C2.05538 15.8934 2.05548 15.8934 2.05596 15.8932C2.05693 15.8928 2.05873 15.8921 2.06135 15.8911C2.0666 15.889 2.07516 15.8856 2.08697 15.881C2.1106 15.8717 2.14728 15.8575 2.19667 15.8385C2.29544 15.8005 2.44502 15.7438 2.6427 15.6708C3.03809 15.5248 3.62569 15.3139 4.38382 15.0589C5.90044 14.5487 8.09732 13.8621 10.8012 13.1637C16.2155 11.765 23.6302 10.3269 31.6698 10.1464C47.7536 9.78529 66.0491 14.4339 76.1649 34.1838L78.8351 32.8162Z" fill="#D90429"/>
</svg>
